<svg xmlns="http://www.w3.org/2000/svg" viewBox="0 0 1500 1300">
  <g fill="#61DAFB" transform="matrix(1,0,0,1,60,140)">
  <path d="M962.3,113.1c-18.5-18.5-40.6-27.7-66.6-27.7H104.2c-25.9,0-48.1,9.2-66.6,27.7C19.2,131.5,10,153.7,10,179.6v640.8c0,25.9,9.2,48.1,27.7,66.6c18.5,18.5,40.6,27.7,66.6,27.7h791.5c25.9,0,48.1-9.2,66.6-27.7c18.5-18.5,27.7-40.6,27.7-66.6V179.6C990,153.7,980.8,131.5,962.3,113.1z M311.5,820.4c0,5.5-1.8,10-5.3,13.6c-3.5,3.5-8,5.3-13.5,5.3H104.2c-5.5,0-10-1.8-13.5-5.3c-3.5-3.5-5.3-8-5.3-13.6V707.3c0-5.5,1.8-10,5.3-13.5c3.5-3.5,8.1-5.3,13.5-5.3h188.5c5.5,0,10,1.8,13.5,5.3c3.5,3.5,5.3,8,5.3,13.5L311.5,820.4L311.5,820.4z M311.5,594.2c0,5.5-1.8,10-5.3,13.5c-3.5,3.5-8,5.3-13.5,5.3H104.2c-5.5,0-10-1.8-13.5-5.3c-3.5-3.5-5.3-8-5.3-13.5V481.1c0-5.5,1.8-10,5.3-13.5c3.5-3.5,8.1-5.3,13.5-5.3h188.5c5.5,0,10,1.8,13.5,5.3c3.5,3.5,5.3,8.1,5.3,13.5L311.5,594.2L311.5,594.2z M311.5,368.1c0,5.5-1.8,10-5.3,13.5c-3.5,3.5-8,5.3-13.5,5.3H104.2c-5.5,0-10-1.8-13.5-5.3c-3.5-3.5-5.3-8-5.3-13.5V255c0-5.5,1.8-10,5.3-13.5c3.5-3.5,8.1-5.3,13.5-5.3h188.5c5.5,0,10,1.8,13.5,5.3c3.5,3.5,5.3,8,5.3,13.5L311.5,368.1L311.5,368.1z M613.1,820.4c0,5.5-1.8,10-5.3,13.6c-3.5,3.5-8,5.3-13.6,5.3H405.8c-5.5,0-10-1.8-13.5-5.3c-3.5-3.5-5.3-8-5.3-13.6V707.3c0-5.5,1.8-10,5.3-13.5c3.5-3.5,8.1-5.3,13.5-5.3h188.5c5.5,0,10,1.8,13.6,5.3c3.5,3.5,5.3,8,5.3,13.5L613.1,820.4L613.1,820.4L613.1,820.4z M613.1,594.2c0,5.5-1.8,10-5.3,13.5c-3.5,3.5-8,5.3-13.6,5.3H405.8c-5.5,0-10-1.8-13.5-5.3c-3.5-3.5-5.3-8-5.3-13.5V481.1c0-5.5,1.8-10,5.3-13.5c3.5-3.5,8.1-5.3,13.5-5.3h188.5c5.5,0,10,1.8,13.6,5.3c3.5,3.5,5.3,8.1,5.3,13.5L613.1,594.2L613.1,594.2z M613.1,368.1c0,5.5-1.8,10-5.3,13.5c-3.5,3.5-8,5.3-13.6,5.3H405.8c-5.5,0-10-1.8-13.5-5.3c-3.5-3.5-5.3-8-5.3-13.5V255c0-5.5,1.8-10,5.3-13.5c3.5-3.5,8.1-5.3,13.5-5.3h188.5c5.5,0,10,1.8,13.6,5.3c3.5,3.5,5.3,8,5.3,13.5L613.1,368.1L613.1,368.1z M914.6,820.4c0,5.5-1.8,10-5.3,13.6c-3.5,3.5-8.1,5.3-13.6,5.3H707.3c-5.5,0-10-1.8-13.6-5.3c-3.5-3.5-5.3-8-5.3-13.6V707.3c0-5.5,1.8-10,5.3-13.5c3.5-3.5,8-5.3,13.6-5.3h188.4c5.5,0,10,1.8,13.6,5.3c3.5,3.5,5.3,8,5.3,13.5V820.4z M914.6,594.2c0,5.5-1.8,10-5.3,13.5c-3.5,3.5-8.1,5.3-13.6,5.3H707.3c-5.5,0-10-1.8-13.6-5.3c-3.5-3.5-5.3-8-5.3-13.5V481.1c0-5.5,1.8-10,5.3-13.5c3.5-3.5,8-5.3,13.6-5.3h188.4c5.5,0,10,1.8,13.6,5.3c3.5,3.5,5.3,8.1,5.3,13.5V594.2z M914.6,368.1c0,5.5-1.8,10-5.3,13.5c-3.5,3.5-8.1,5.3-13.6,5.3H707.3c-5.5,0-10-1.8-13.6-5.3c-3.5-3.5-5.3-8-5.3-13.5V255c0-5.5,1.8-10,5.3-13.5c3.5-3.5,8-5.3,13.6-5.3h188.4c5.5,0,10,1.8,13.6,5.3c3.5,3.5,5.3,8,5.3,13.5V368.1z"/></g><g></g><g></g><g></g><g></g><g></g><g></g><g></g><g></g><g></g><g></g><g></g><g></g><g></g><g></g><g>
  </g>
</svg>